<mxfile host="65bd71144e">
    <diagram id="aeK9TVIWi9eqSDKCjZsI" name="Page-1">
        <mxGraphModel dx="1235" dy="726" grid="0" gridSize="10" guides="1" tooltips="1" connect="1" arrows="1" fold="1" page="1" pageScale="1" pageWidth="4681" pageHeight="3300" math="0" shadow="0">
            <root>
                <mxCell id="0"/>
                <mxCell id="1" parent="0"/>
                <mxCell id="D5PJ7m-70zFiwvf29XOF-29" value="Leitor" style="swimlane;childLayout=stackLayout;horizontal=1;startSize=30;horizontalStack=0;rounded=1;fontSize=14;fontStyle=1;strokeWidth=2;resizeParent=0;resizeLast=1;shadow=0;dashed=0;align=center;" parent="1" vertex="1">
                    <mxGeometry x="740" y="290" width="160" height="90" as="geometry"/>
                </mxCell>
                <mxCell id="D5PJ7m-70zFiwvf29XOF-30" value="+ Id&#10;+ Nome" style="align=left;strokeColor=none;fillColor=none;spacingLeft=4;fontSize=12;verticalAlign=top;resizable=0;rotatable=0;part=1;" parent="D5PJ7m-70zFiwvf29XOF-29" vertex="1">
                    <mxGeometry y="30" width="160" height="60" as="geometry"/>
                </mxCell>
                <mxCell id="D5PJ7m-70zFiwvf29XOF-31" value="Avaliação" style="swimlane;childLayout=stackLayout;horizontal=1;startSize=30;horizontalStack=0;rounded=1;fontSize=14;fontStyle=1;strokeWidth=2;resizeParent=0;resizeLast=1;shadow=0;dashed=0;align=center;" parent="1" vertex="1">
                    <mxGeometry x="1100" y="330" width="160" height="120" as="geometry"/>
                </mxCell>
                <mxCell id="D5PJ7m-70zFiwvf29XOF-32" value="+ Id&#10;+ Nota&#10;+ Descrição&#10;+ Data&#10;+ LeitorId&#10;" style="align=left;strokeColor=none;fillColor=none;spacingLeft=4;fontSize=12;verticalAlign=top;resizable=0;rotatable=0;part=1;" parent="D5PJ7m-70zFiwvf29XOF-31" vertex="1">
                    <mxGeometry y="30" width="160" height="90" as="geometry"/>
                </mxCell>
                <mxCell id="D5PJ7m-70zFiwvf29XOF-33" value="Livro" style="swimlane;childLayout=stackLayout;horizontal=1;startSize=30;horizontalStack=0;rounded=1;fontSize=14;fontStyle=1;strokeWidth=2;resizeParent=0;resizeLast=1;shadow=0;dashed=0;align=center;" parent="1" vertex="1">
                    <mxGeometry x="740" y="470" width="160" height="90" as="geometry"/>
                </mxCell>
                <mxCell id="D5PJ7m-70zFiwvf29XOF-34" value="+ Id&#10;+ Título&#10;+ CategoriaId&#10;" style="align=left;strokeColor=none;fillColor=none;spacingLeft=4;fontSize=12;verticalAlign=top;resizable=0;rotatable=0;part=1;" parent="D5PJ7m-70zFiwvf29XOF-33" vertex="1">
                    <mxGeometry y="30" width="160" height="60" as="geometry"/>
                </mxCell>
                <mxCell id="D5PJ7m-70zFiwvf29XOF-35" value="Autor" style="swimlane;childLayout=stackLayout;horizontal=1;startSize=30;horizontalStack=0;rounded=1;fontSize=14;fontStyle=1;strokeWidth=2;resizeParent=0;resizeLast=1;shadow=0;dashed=0;align=center;comic=0;moveCells=0;treeMoving=0;treeFolding=0;autosize=0;" parent="1" vertex="1">
                    <mxGeometry x="891" y="681" width="160" height="81" as="geometry"/>
                </mxCell>
                <mxCell id="D5PJ7m-70zFiwvf29XOF-36" value="+ Id&#10;+ Nome&#10;" style="align=left;strokeColor=none;fillColor=none;spacingLeft=4;fontSize=12;verticalAlign=top;resizable=0;rotatable=0;part=1;" parent="D5PJ7m-70zFiwvf29XOF-35" vertex="1">
                    <mxGeometry y="30" width="160" height="51" as="geometry"/>
                </mxCell>
                <mxCell id="D5PJ7m-70zFiwvf29XOF-37" value="Categoria" style="swimlane;childLayout=stackLayout;horizontal=1;startSize=30;horizontalStack=0;rounded=1;fontSize=14;fontStyle=1;strokeWidth=2;resizeParent=0;resizeLast=1;shadow=0;dashed=0;align=center;" parent="1" vertex="1">
                    <mxGeometry x="551" y="636" width="160" height="89" as="geometry"/>
                </mxCell>
                <mxCell id="D5PJ7m-70zFiwvf29XOF-38" value="+ Id&#10;+ Nome&#10;+ Descrição" style="align=left;strokeColor=none;fillColor=none;spacingLeft=4;fontSize=12;verticalAlign=top;resizable=0;rotatable=0;part=1;" parent="D5PJ7m-70zFiwvf29XOF-37" vertex="1">
                    <mxGeometry y="30" width="160" height="59" as="geometry"/>
                </mxCell>
                <mxCell id="D5PJ7m-70zFiwvf29XOF-51" value="" style="endArrow=none;html=1;rounded=1;flowAnimation=1;exitX=1;exitY=0.5;exitDx=0;exitDy=0;orthogonal=0;" parent="1" source="D5PJ7m-70zFiwvf29XOF-30" edge="1">
                    <mxGeometry relative="1" as="geometry">
                        <mxPoint x="930" y="350" as="sourcePoint"/>
                        <mxPoint x="1098" y="348" as="targetPoint"/>
                        <Array as="points">
                            <mxPoint x="1000" y="350"/>
                            <mxPoint x="1060" y="350"/>
                        </Array>
                    </mxGeometry>
                </mxCell>
                <mxCell id="D5PJ7m-70zFiwvf29XOF-52" value="Pode fazer zero ou mais" style="edgeLabel;html=1;align=center;verticalAlign=middle;resizable=0;points=[];" parent="D5PJ7m-70zFiwvf29XOF-51" vertex="1" connectable="0">
                    <mxGeometry x="-0.1189" relative="1" as="geometry">
                        <mxPoint x="4" y="10" as="offset"/>
                    </mxGeometry>
                </mxCell>
                <mxCell id="D5PJ7m-70zFiwvf29XOF-55" value="" style="endArrow=none;html=1;rounded=1;flowAnimation=1;exitX=0;exitY=1;exitDx=0;exitDy=0;entryX=1;entryY=0.25;entryDx=0;entryDy=0;" parent="1" source="D5PJ7m-70zFiwvf29XOF-32" target="D5PJ7m-70zFiwvf29XOF-33" edge="1">
                    <mxGeometry relative="1" as="geometry">
                        <mxPoint x="1080" y="490" as="sourcePoint"/>
                        <mxPoint x="940" y="490" as="targetPoint"/>
                        <Array as="points">
                            <mxPoint x="1010" y="493"/>
                        </Array>
                    </mxGeometry>
                </mxCell>
                <mxCell id="D5PJ7m-70zFiwvf29XOF-56" value="Está relacionada à um único" style="edgeLabel;html=1;align=center;verticalAlign=middle;resizable=0;points=[];" parent="D5PJ7m-70zFiwvf29XOF-55" vertex="1" connectable="0">
                    <mxGeometry x="0.148" y="1" relative="1" as="geometry">
                        <mxPoint x="11" y="6" as="offset"/>
                    </mxGeometry>
                </mxCell>
                <mxCell id="D5PJ7m-70zFiwvf29XOF-57" value="" style="endArrow=none;html=1;rounded=0;flowAnimation=1;entryX=0.5;entryY=0;entryDx=0;entryDy=0;exitX=0.5;exitY=1;exitDx=0;exitDy=0;" parent="1" source="D5PJ7m-70zFiwvf29XOF-30" target="D5PJ7m-70zFiwvf29XOF-33" edge="1">
                    <mxGeometry relative="1" as="geometry">
                        <mxPoint x="750" y="420" as="sourcePoint"/>
                        <mxPoint x="890" y="420" as="targetPoint"/>
                    </mxGeometry>
                </mxCell>
                <mxCell id="D5PJ7m-70zFiwvf29XOF-58" value="Pode avaliar zero ou mais" style="edgeLabel;html=1;align=center;verticalAlign=middle;resizable=0;points=[];" parent="D5PJ7m-70zFiwvf29XOF-57" vertex="1" connectable="0">
                    <mxGeometry x="-0.518" relative="1" as="geometry">
                        <mxPoint y="19" as="offset"/>
                    </mxGeometry>
                </mxCell>
                <mxCell id="D5PJ7m-70zFiwvf29XOF-61" value="" style="endArrow=none;html=1;rounded=1;flowAnimation=1;exitX=1;exitY=0;exitDx=0;exitDy=0;orthogonal=0;entryX=0;entryY=0.25;entryDx=0;entryDy=0;" parent="1" source="D5PJ7m-70zFiwvf29XOF-33" target="D5PJ7m-70zFiwvf29XOF-32" edge="1">
                    <mxGeometry relative="1" as="geometry">
                        <mxPoint x="880" y="442" as="sourcePoint"/>
                        <mxPoint x="1078" y="439.9999999999999" as="targetPoint"/>
                        <Array as="points">
                            <mxPoint x="990" y="405"/>
                            <mxPoint x="1040" y="390"/>
                        </Array>
                    </mxGeometry>
                </mxCell>
                <mxCell id="D5PJ7m-70zFiwvf29XOF-62" value="Possui zero ou mais" style="edgeLabel;html=1;align=center;verticalAlign=middle;resizable=0;points=[];" parent="D5PJ7m-70zFiwvf29XOF-61" vertex="1" connectable="0">
                    <mxGeometry x="-0.1189" relative="1" as="geometry">
                        <mxPoint x="4" y="10" as="offset"/>
                    </mxGeometry>
                </mxCell>
                <mxCell id="D5PJ7m-70zFiwvf29XOF-67" value="" style="endArrow=none;html=1;rounded=1;flowAnimation=1;exitX=0;exitY=0.75;exitDx=0;exitDy=0;entryX=0.75;entryY=0;entryDx=0;entryDy=0;" parent="1" source="D5PJ7m-70zFiwvf29XOF-34" target="D5PJ7m-70zFiwvf29XOF-37" edge="1">
                    <mxGeometry relative="1" as="geometry">
                        <mxPoint x="610" y="590" as="sourcePoint"/>
                        <mxPoint x="750" y="590" as="targetPoint"/>
                        <Array as="points">
                            <mxPoint x="690" y="560"/>
                        </Array>
                    </mxGeometry>
                </mxCell>
                <mxCell id="D5PJ7m-70zFiwvf29XOF-68" value="Pertence à uma ou mais" style="edgeLabel;html=1;align=center;verticalAlign=middle;resizable=0;points=[];" parent="D5PJ7m-70zFiwvf29XOF-67" vertex="1" connectable="0">
                    <mxGeometry x="0.6962" y="1" relative="1" as="geometry">
                        <mxPoint y="-12" as="offset"/>
                    </mxGeometry>
                </mxCell>
                <mxCell id="D5PJ7m-70zFiwvf29XOF-69" value="" style="endArrow=none;html=1;rounded=1;flowAnimation=1;entryX=0;entryY=0.25;entryDx=0;entryDy=0;exitX=0.25;exitY=0;exitDx=0;exitDy=0;" parent="1" source="D5PJ7m-70zFiwvf29XOF-37" target="D5PJ7m-70zFiwvf29XOF-33" edge="1">
                    <mxGeometry relative="1" as="geometry">
                        <mxPoint x="570" y="514.6600000000001" as="sourcePoint"/>
                        <mxPoint x="710" y="514.6600000000001" as="targetPoint"/>
                        <Array as="points">
                            <mxPoint x="590" y="493"/>
                        </Array>
                    </mxGeometry>
                </mxCell>
                <mxCell id="D5PJ7m-70zFiwvf29XOF-70" value="Possui um ou mais" style="edgeLabel;html=1;align=center;verticalAlign=middle;resizable=0;points=[];" parent="D5PJ7m-70zFiwvf29XOF-69" vertex="1" connectable="0">
                    <mxGeometry x="-0.2116" y="-1" relative="1" as="geometry">
                        <mxPoint y="13" as="offset"/>
                    </mxGeometry>
                </mxCell>
                <mxCell id="D5PJ7m-70zFiwvf29XOF-71" value="" style="endArrow=none;html=1;rounded=1;flowAnimation=1;entryX=0.5;entryY=1;entryDx=0;entryDy=0;exitX=0.25;exitY=0;exitDx=0;exitDy=0;" parent="1" source="D5PJ7m-70zFiwvf29XOF-35" target="D5PJ7m-70zFiwvf29XOF-34" edge="1">
                    <mxGeometry relative="1" as="geometry">
                        <mxPoint x="760" y="620.0000000000001" as="sourcePoint"/>
                        <mxPoint x="900" y="620.0000000000001" as="targetPoint"/>
                        <Array as="points">
                            <mxPoint x="830" y="620"/>
                        </Array>
                    </mxGeometry>
                </mxCell>
                <mxCell id="D5PJ7m-70zFiwvf29XOF-72" value="Possui um ou mais" style="edgeLabel;html=1;align=center;verticalAlign=middle;resizable=0;points=[];" parent="D5PJ7m-70zFiwvf29XOF-71" vertex="1" connectable="0">
                    <mxGeometry x="0.5025" relative="1" as="geometry">
                        <mxPoint as="offset"/>
                    </mxGeometry>
                </mxCell>
                <mxCell id="D5PJ7m-70zFiwvf29XOF-73" value="" style="endArrow=none;html=1;rounded=1;flowAnimation=1;exitX=1;exitY=0.75;exitDx=0;exitDy=0;entryX=0.75;entryY=0;entryDx=0;entryDy=0;" parent="1" source="D5PJ7m-70zFiwvf29XOF-34" target="D5PJ7m-70zFiwvf29XOF-35" edge="1">
                    <mxGeometry relative="1" as="geometry">
                        <mxPoint x="930" y="560.0000000000001" as="sourcePoint"/>
                        <mxPoint x="1070" y="560.0000000000001" as="targetPoint"/>
                        <Array as="points">
                            <mxPoint x="1010" y="545"/>
                        </Array>
                    </mxGeometry>
                </mxCell>
                <mxCell id="D5PJ7m-70zFiwvf29XOF-74" value="Possui um ou mais" style="edgeLabel;html=1;align=center;verticalAlign=middle;resizable=0;points=[];" parent="D5PJ7m-70zFiwvf29XOF-73" vertex="1" connectable="0">
                    <mxGeometry x="0.4133" y="1" relative="1" as="geometry">
                        <mxPoint as="offset"/>
                    </mxGeometry>
                </mxCell>
                <mxCell id="D5PJ7m-70zFiwvf29XOF-81" value="" style="endArrow=none;html=1;rounded=1;flowAnimation=1;" parent="1" edge="1">
                    <mxGeometry relative="1" as="geometry">
                        <mxPoint x="476" y="378.82" as="sourcePoint"/>
                        <mxPoint x="616" y="378.82" as="targetPoint"/>
                    </mxGeometry>
                </mxCell>
            </root>
        </mxGraphModel>
    </diagram>
</mxfile>